<svg width="33" height="25" viewBox="0 0 33 25" fill="none" xmlns="http://www.w3.org/2000/svg">
<path d="M31.4997 10.6214L21.5649 0.686618C20.6494 -0.228873 19.1236 -0.228873 18.2081 0.686618C17.2926 1.60211 17.2926 3.12793 18.2081 4.04342L24.074 9.94324H2.37349C1.05112 9.94324 0 10.9944 0 12.3167C0 13.6391 1.05112 14.6902 2.37349 14.6902H24.074L18.2081 20.5562C17.2926 21.4716 17.2926 22.9975 18.2081 23.9129C18.6828 24.3876 19.2931 24.625 19.9034 24.625C20.5138 24.625 21.1241 24.3876 21.5988 23.9129L31.4997 14.0121C31.9404 13.5713 32.2117 12.961 32.2117 12.3167C32.2117 11.6725 31.9744 11.0622 31.4997 10.6214Z" fill="#AF9F87"/>
</svg>
