<svg width="29" height="29" viewBox="0 0 29 29" fill="none" xmlns="http://www.w3.org/2000/svg">
<path d="M21.3539 17.1062H18.8047V18.8057H21.3539C21.8227 18.8057 22.2036 18.4247 22.2036 17.9559C22.2036 17.4871 21.8227 17.1062 21.3539 17.1062Z" fill="#AF9F87"/>
<path d="M19.6543 10.3091C14.5011 10.3091 10.3086 14.5016 10.3086 19.6548C10.3086 24.808 14.5011 29.0005 19.6543 29.0005C24.8075 29.0005 29 24.808 29 19.6548C29 14.5016 24.8075 10.3091 19.6543 10.3091ZM23.9023 21.354C23.9023 22.7595 22.759 23.9028 21.3535 23.9028H20.5039V24.7524C20.5039 25.222 20.1239 25.6021 19.6543 25.6021C19.1847 25.6021 18.8047 25.222 18.8047 24.7524V23.9028H16.2559C15.7863 23.9028 15.4062 23.5228 15.4062 23.0532C15.4062 22.5836 15.7863 22.2036 16.2559 22.2036H17.1055V17.106H16.2559C15.7863 17.106 15.4062 16.726 15.4062 16.2563C15.4062 15.7867 15.7863 15.4067 16.2559 15.4067H18.8047V14.5571C18.8047 14.0875 19.1847 13.7075 19.6543 13.7075C20.1239 13.7075 20.5039 14.0875 20.5039 14.5571V15.4067H21.3535C22.759 15.4067 23.9023 16.5501 23.9023 17.9556C23.9023 18.6107 23.647 19.2028 23.2394 19.6548C23.647 20.1067 23.9023 20.6988 23.9023 21.354Z" fill="#AF9F87"/>
<path d="M21.3539 20.5046H18.8047V22.2041H21.3539C21.8227 22.2041 22.2036 21.8232 22.2036 21.3544C22.2036 20.8855 21.8227 20.5046 21.3539 20.5046Z" fill="#AF9F87"/>
<path d="M8.84167 22.1134C8.4679 22.1304 8.07702 22.1474 7.70325 22.1474C4.95051 22.1474 1.83534 21.6037 0.00012207 20.2273C0.00012207 23.1046 4.81729 23.8466 7.70325 23.8466C8.28104 23.8466 8.82468 23.7956 9.36843 23.7447C9.14753 23.2179 8.97766 22.6742 8.84167 22.1134Z" fill="#AF9F87"/>
<path d="M8.5869 18.7317C8.29792 18.7487 7.99206 18.7487 7.70325 18.7487C4.95051 18.7487 1.83533 18.205 0.00012207 16.8286C0.00012207 19.7662 4.83417 20.448 7.70325 20.448C7.99206 20.448 8.29792 20.4479 8.5869 20.4139C8.5699 20.1421 8.55286 19.8702 8.55286 19.5983C8.55286 19.3094 8.56985 19.0205 8.5869 18.7317Z" fill="#AF9F87"/>
<path d="M7.70325 15.3503C4.95051 15.3504 1.83533 14.8065 0.00012207 13.4302C0.00012207 16.3677 4.83417 17.0495 7.70325 17.0495C8.09401 17.0495 8.46789 17.0325 8.85872 17.0155C8.99471 16.4038 9.19856 15.826 9.43651 15.2653C8.85872 15.3332 8.28104 15.3503 7.70325 15.3503Z" fill="#AF9F87"/>
<path d="M7.70325 11.9519C4.95051 11.9519 1.83534 11.4081 0.00012207 10.0317C0.00012207 12.9693 4.83417 13.6511 7.70325 13.6511C8.62077 13.6511 9.55545 13.5831 10.439 13.4472H10.456C10.6939 13.0394 10.9997 12.6485 11.3226 12.2918C11.5944 11.9858 11.8834 11.697 12.1892 11.4081C10.7618 11.7819 9.19856 11.9519 7.70325 11.9519Z" fill="#AF9F87"/>
<path d="M7.70312 8.55432C4.94603 8.55432 1.84275 8.004 0 6.62622C0 9.56774 4.83479 10.2535 7.70312 10.2535C11.3904 10.2535 15.3496 9.18304 15.3496 6.85511V6.62622C13.5069 8.004 10.4602 8.55432 7.70312 8.55432Z" fill="#AF9F87"/>
<path d="M0 3.45572C0 5.68674 3.90311 6.85416 7.70312 6.85416C11.5031 6.85416 15.3496 5.68679 15.3496 3.45572C15.3496 -1.14344 0 -1.14344 0 3.45572Z" fill="#AF9F87"/>
</svg>
